<?xml version="1.0" standalone="no"?>
<!DOCTYPE svg PUBLIC "-//W3C//DTD SVG 20010904//EN"
 "http://www.w3.org/TR/2001/REC-SVG-20010904/DTD/svg10.dtd">
<svg version="1.0" xmlns="http://www.w3.org/2000/svg"
 width="766.000000pt" height="766.000000pt" viewBox="0 0 766.000000 766.000000"
 preserveAspectRatio="xMidYMid meet">

<g transform="translate(0.000000,766.000000) scale(0.100000,-0.100000)"
fill="#000000" stroke="none">
<path d="M0 3825 l0 -3825 3825 0 3825 0 0 3825 0 3825 -3825 0 -3825 0 0
-3825z m3883 3249 c29 -15 120 -70 202 -124 83 -53 346 -220 585 -370 239
-150 439 -277 444 -281 16 -14 2 -20 -90 -35 -135 -21 -157 -19 -222 23 -231
149 -967 603 -977 603 -14 0 -719 -439 -908 -565 l-118 -79 -107 13 c-180 22
-179 17 -13 127 80 52 239 153 355 226 116 73 323 204 461 292 203 131 302
189 333 195 1 1 26 -11 55 -25z m-2013 -709 c114 -19 193 -36 467 -101 128
-30 330 -70 449 -89 119 -19 219 -36 221 -38 2 -2 -18 -22 -44 -43 -27 -21
-95 -82 -153 -134 -174 -158 -201 -179 -267 -212 -54 -26 -70 -30 -113 -25
-82 10 -112 35 -232 197 -138 185 -230 275 -337 330 -44 22 -99 29 -121 15
-84 -52 -26 -460 104 -730 29 -60 92 -168 140 -239 47 -71 84 -131 82 -134 -3
-2 -21 -1 -41 2 -71 14 -158 120 -249 304 -26 50 -51 92 -58 92 -6 0 -30 -12
-53 -27 l-42 -26 -6 -816 c-4 -449 -7 -958 -7 -1131 l0 -315 43 -24 c54 -31
972 -614 1402 -891 182 -117 430 -276 552 -352 l222 -140 49 28 c27 16 248
157 491 314 703 454 836 540 1266 813 l405 259 0 1128 0 1128 -52 31 -53 30
-45 -92 c-96 -193 -181 -297 -254 -311 -21 -4 -39 -6 -41 -4 -1 2 36 62 82
133 47 72 103 165 125 209 123 244 196 646 134 741 -16 25 -22 27 -67 23 -96
-10 -226 -114 -364 -293 -186 -242 -208 -261 -299 -253 -95 8 -176 62 -376
253 -47 44 -107 98 -133 120 -54 43 -50 55 18 55 106 0 335 44 718 136 376 90
513 103 562 53 56 -56 70 -245 32 -424 -8 -38 -18 -93 -22 -122 l-7 -52 103
-68 c86 -56 104 -73 109 -98 3 -16 5 -564 5 -1217 l0 -1188 -25 -24 c-14 -13
-140 -96 -280 -184 -140 -87 -397 -250 -570 -362 -173 -111 -391 -250 -483
-309 -92 -58 -342 -220 -555 -360 -213 -139 -406 -262 -430 -273 l-43 -19 -55
30 c-69 40 -447 279 -1054 669 -261 168 -641 412 -845 541 -431 275 -409 260
-423 288 -9 16 -12 330 -12 1215 0 1032 2 1196 15 1214 8 12 58 48 111 80 l96
58 -5 41 c-3 22 -15 96 -27 165 -32 180 -20 347 29 404 34 39 79 44 211 21z
m1040 -970 c28 -88 118 -191 293 -335 98 -80 172 -173 199 -247 17 -50 19 -73
15 -168 -3 -60 -13 -164 -21 -230 -9 -66 -19 -211 -23 -323 -3 -111 -7 -201
-9 -200 -1 2 -19 94 -39 206 -23 132 -39 256 -44 355 -11 212 -26 243 -156
319 -33 19 -145 75 -250 124 -104 49 -215 103 -245 121 -104 61 -98 60 -128
30 -22 -22 -26 -35 -24 -73 1 -26 13 -71 26 -100 73 -160 208 -283 419 -384
95 -45 147 -94 179 -168 33 -74 22 -148 -50 -324 -60 -147 -91 -234 -112 -318
l-12 -45 -29 64 c-38 84 -131 175 -332 325 -85 64 -178 142 -207 173 -138 154
-211 368 -196 578 14 214 92 349 200 348 24 -1 54 -6 65 -13 12 -6 41 -14 64
-18 42 -8 42 -7 84 48 56 75 303 314 313 304 4 -5 13 -27 20 -49z m2034 -109
c75 -76 166 -189 166 -206 0 -15 -178 -111 -381 -205 -188 -88 -278 -140 -307
-174 -29 -37 -42 -88 -47 -194 -4 -62 -11 -152 -17 -202 -11 -98 -75 -425 -84
-434 -4 -4 -3 44 1 104 5 83 0 184 -20 410 -15 165 -24 324 -22 353 11 106 66
191 203 309 174 151 241 222 277 296 20 40 38 80 41 90 5 17 12 14 59 -24 28
-24 88 -79 131 -123z m421 -198 c78 -68 118 -194 117 -373 -1 -194 -48 -336
-161 -477 -59 -75 -133 -140 -281 -245 -47 -34 -122 -96 -167 -138 -66 -61
-90 -91 -117 -148 l-34 -72 -12 45 c-21 83 -42 144 -102 294 -33 81 -65 176
-71 210 -21 124 41 230 174 297 194 97 300 183 390 317 45 67 79 151 79 193 0
10 -11 31 -25 47 l-25 30 42 20 c61 28 68 30 115 31 34 1 50 -5 78 -31z
m-2141 -1015 c13 -43 34 -139 46 -213 46 -289 58 -311 256 -450 165 -118 234
-199 219 -260 -30 -123 -401 -274 -564 -230 -30 8 -60 28 -96 64 l-52 52 -49
-17 c-27 -9 -105 -44 -174 -78 -85 -42 -115 -53 -95 -36 75 63 203 128 400
200 46 17 48 19 25 26 -14 4 -53 7 -87 8 -58 1 -64 3 -77 30 -14 27 -18 28
-68 24 -103 -8 -257 -44 -419 -98 -171 -57 -185 -51 -43 19 126 61 280 104
484 135 25 3 100 2 168 -4 68 -5 126 -8 128 -6 6 7 -61 27 -169 51 -49 11
-100 29 -115 40 -32 23 -117 43 -277 65 -95 14 -157 16 -295 10 -96 -3 -186
-9 -200 -11 -21 -5 -23 -4 -7 6 66 42 436 58 636 26 155 -24 147 -26 154 42 7
77 47 207 112 371 71 181 126 311 131 311 2 0 14 -35 28 -77z m1306 -97 c113
-270 170 -449 170 -535 l0 -34 53 6 c28 3 102 13 162 21 130 18 251 20 378 5
98 -11 281 -52 197 -44 -131 12 -358 15 -455 6 -134 -13 -312 -49 -330 -67 -7
-7 -53 -24 -101 -38 -195 -56 -195 -56 -44 -49 219 9 423 -35 651 -140 134
-62 117 -66 -47 -12 -166 56 -311 89 -422 98 l-63 5 -17 -34 -16 -35 -86 7
c-109 8 -100 -4 45 -56 59 -22 133 -54 164 -71 72 -40 193 -120 189 -125 -2
-1 -51 21 -108 51 -58 29 -135 65 -172 80 l-66 26 -54 -54 c-63 -66 -110 -82
-209 -74 -70 6 -231 60 -309 104 -203 115 -186 203 76 383 116 81 177 141 204
203 11 23 35 128 54 232 31 167 72 323 82 313 1 -2 35 -80 74 -172z m-927
-353 c82 -21 124 -27 217 -27 93 0 135 6 217 27 149 39 202 35 189 -16 -3 -15
-20 -32 -43 -43 -35 -17 -65 -19 -353 -19 -337 0 -377 5 -406 49 -40 62 20 71
179 29z m452 -733 c91 -26 298 -100 308 -110 15 -14 -32 -88 -101 -162 -106
-113 -192 -170 -304 -202 -106 -30 -262 -15 -362 36 -99 50 -254 195 -294 275
l-22 42 108 41 c257 100 361 122 517 108 44 -4 112 -16 150 -28z m-37 -1399
c55 -28 93 -80 100 -136 l5 -45 -70 0 c-67 0 -69 1 -80 30 -25 68 -148 66
-172 -2 -13 -37 2 -73 38 -87 14 -6 56 -18 93 -27 96 -23 149 -60 182 -125 44
-90 34 -190 -28 -257 -76 -85 -264 -95 -367 -20 -43 31 -78 94 -79 141 0 27 0
27 69 27 67 0 69 -1 79 -29 27 -76 165 -82 200 -8 11 22 11 35 2 63 -13 40
-36 53 -130 74 -146 34 -220 121 -207 247 9 88 64 152 151 174 53 14 169 3
214 -20z m-1782 -8 c130 -69 165 -235 73 -346 -49 -60 -98 -79 -211 -85 l-98
-5 0 -133 0 -134 -70 0 -70 0 0 366 0 366 168 -4 c147 -3 172 -6 208 -25z
m552 12 c100 -30 152 -100 152 -206 0 -93 -34 -152 -118 -205 -2 -2 26 -68 62
-148 36 -80 66 -148 66 -151 0 -3 -36 -5 -79 -5 l-79 0 -58 140 -59 140 -37 0
-38 0 0 -140 0 -140 -70 0 -70 0 0 365 0 365 138 0 c95 0 155 -5 190 -15z
m722 -50 l0 -65 -75 0 -75 0 0 -235 0 -235 75 0 75 0 0 -65 0 -65 -220 0 -220
0 0 65 0 65 75 0 75 0 0 235 0 235 -75 0 -75 0 0 65 0 65 220 0 220 0 0 -65z
m940 -85 c19 -82 38 -146 41 -142 3 4 21 71 39 150 l34 142 93 0 93 0 0 -365
0 -365 -70 0 -70 0 0 174 c0 96 5 232 11 301 6 70 9 128 7 131 -2 2 -21 -64
-43 -147 l-38 -150 -61 3 -60 3 -38 145 c-27 106 -36 130 -33 90 3 -30 8 -166
12 -302 l6 -248 -72 0 -71 0 0 365 0 365 93 0 93 0 34 -150z m691 -258 c28
-32 29 -35 29 -147 0 -112 -1 -115 -29 -147 -26 -30 -35 -33 -100 -36 l-71 -4
0 187 0 187 71 -4 c65 -3 74 -6 100 -36z m298 21 c12 -10 25 -33 30 -50 8 -29
7 -33 -8 -33 -12 0 -20 10 -24 29 -11 54 -99 63 -126 12 -6 -11 -11 -69 -11
-129 0 -90 3 -114 18 -130 26 -32 63 -37 95 -12 23 18 27 29 27 71 l0 49 -40
0 c-29 0 -40 4 -40 15 0 12 13 15 60 15 l60 0 0 -42 c0 -61 -17 -115 -43 -133
-12 -8 -42 -15 -68 -15 -40 0 -51 4 -73 31 -25 29 -26 36 -26 154 0 118 1 125
26 154 22 27 32 31 74 31 31 0 55 -6 69 -17z m145 -145 c10 -90 19 -164 20
-166 2 -1 13 72 26 163 20 141 26 165 40 165 20 0 22 -5 46 -195 21 -158 22
-155 45 68 9 93 16 127 26 127 17 0 17 -6 -7 -190 -11 -85 -20 -161 -20 -167
0 -7 -10 -13 -23 -13 -23 0 -24 5 -42 155 -10 85 -21 152 -24 150 -3 -3 -14
-72 -26 -153 -19 -137 -22 -147 -43 -150 -12 -2 -22 1 -22 5 0 5 -9 81 -20
169 -24 190 -24 194 -7 194 10 0 18 -43 31 -162z"/>
<path d="M3103 3475 c4 -21 18 -51 33 -66 l27 -28 39 21 c21 12 38 24 38 28 0
3 -32 23 -72 44 l-71 39 6 -38z"/>
<path d="M4473 3467 c-35 -17 -63 -35 -63 -39 0 -4 17 -16 39 -27 l38 -20 20
22 c26 28 43 61 43 81 0 21 -4 20 -77 -17z"/>
<path d="M2000 1280 l0 -102 80 4 c101 4 125 23 125 98 0 75 -24 94 -125 98
l-80 4 0 -102z"/>
<path d="M2600 1285 l0 -95 59 0 c81 0 109 12 127 56 12 28 13 43 4 70 -15 45
-53 64 -130 64 l-60 0 0 -95z"/>
<path d="M5000 955 l0 -155 45 0 c35 0 52 6 70 25 23 23 25 31 25 130 0 99 -2
107 -25 130 -18 19 -35 25 -70 25 l-45 0 0 -155z"/>
</g>
</svg>
